<svg xmlns="http://www.w3.org/2000/svg" width="900" height="392" fill="none" viewBox="0 0 900 392">
  <path fill="#807F83" d="M43.205 219.35c15.288-.664 24.594-1.994 28.582-4.653 3.988-2.658 5.983-7.311 5.983-13.294V85.081c0-5.982-1.33-9.97-4.653-11.964-2.66-1.994-8.641-2.659-16.618-2.659h-4.653c-1.329 0-3.988 0-6.647.665v-3.324l22.6-3.988c.665 0 16.617-2.659 47.858-7.976.665 0 1.33 0 1.994.664.665.665.665.665.665 1.33v16.617c10.635-5.317 19.941-9.305 27.917-11.964 14.624-4.653 29.247-6.647 44.535-6.647 21.935 0 41.211 4.653 57.164 13.958 15.953 9.306 23.929 22.6 23.929 39.218 0 15.952-9.97 30.576-28.582 43.87-19.276 13.293-43.205 19.94-72.452 19.94-9.306 0-16.617-.664-23.264-1.994-10.635-1.994-19.941-4.653-28.582-9.305v39.217c0 7.976 2.659 13.294 7.976 15.288 5.318 1.994 16.618 3.323 34.564 3.988v3.988H43.205v-4.653Zm94.387-59.823c8.641 2.659 17.947 3.989 29.247 3.989 17.282 0 32.57-4.653 44.535-13.294 12.629-8.641 18.611-20.606 18.611-35.894 0-14.623-6.647-25.923-19.276-33.235-12.629-7.311-27.917-11.3-44.535-11.3-11.964 0-22.599 1.994-32.57 5.318-9.97 3.988-14.623 7.312-14.623 10.635v60.488c3.988 6.647 10.635 10.635 18.611 13.293Zm159.528 5.983c17.282-.665 27.917-1.994 32.57-3.989 4.653-1.994 6.647-7.976 6.647-17.282V85.746c0-5.318-.665-8.641-1.994-10.635-2.659-3.324-7.312-4.653-15.288-4.653h-5.318c-1.994 0-6.647.665-14.623 1.994v-3.323l9.97-1.33c27.918-4.653 47.194-7.976 58.494-9.97 4.653-.665 7.311-1.33 8.641-1.33 0 .665.664 1.33.664 1.994v86.411c0 9.306 1.995 14.623 6.647 17.282 4.653 1.994 14.624 3.988 29.912 4.653v3.323H297.12v-4.652ZM335.007 3.988C339.66 1.33 345.643 0 352.954 0c6.647 0 12.63 1.33 17.947 3.323 4.653 2.66 7.312 5.318 7.312 8.642 0 3.323-2.659 6.646-7.312 8.64-4.653 2.66-10.635 3.324-17.947 3.324-7.311 0-13.294-1.33-17.947-3.323-4.652-2.66-7.311-5.318-7.311-8.642 0-1.994 2.659-5.317 7.311-7.976Zm264.55 59.158c14.623 5.318 21.935 10.635 21.935 16.618 0 2.658-1.994 5.317-5.318 7.311-3.988 1.994-9.305 3.324-17.282 3.324-5.317 0-10.635-.665-14.623-2.659-3.988-1.994-7.312-4.653-9.306-8.641l-2.659-5.982c-1.994-3.989-5.982-7.312-10.635-9.306-5.317-1.994-11.964-2.659-20.605-2.659-17.947 0-33.9 3.988-46.529 11.965-12.63 7.976-18.612 18.611-18.612 31.905 0 11.965 6.647 23.265 20.606 33.235 13.958 9.97 32.57 14.623 55.834 14.623 16.618 0 31.241-2.658 44.535-8.641 7.312-3.323 15.953-7.976 25.259-15.288l6.647 1.994c-9.306 9.971-18.612 17.282-28.582 22.6-19.277 10.635-41.876 15.953-67.135 15.953-25.258 0-47.193-4.653-66.47-14.624-19.276-9.97-28.582-23.264-28.582-40.546 0-16.618 10.636-31.24 31.241-43.205 21.271-11.965 47.858-17.947 79.764-17.947 18.611 2.659 35.894 5.317 50.517 9.97Zm87.075 9.306c20.606-11.3 46.529-16.617 78.435-16.617 31.905 0 57.828 5.317 79.099 15.952 20.605 10.636 31.24 24.594 31.24 41.876 0 15.953-9.97 29.912-30.576 41.876-19.941 11.965-46.528 17.947-78.434 17.947-30.576 0-57.164-5.982-78.434-17.282-21.271-11.3-31.906-25.923-31.906-42.541 0-16.617 10.635-30.576 30.576-41.21Zm38.553-3.988c-15.953 7.312-23.929 19.94-23.929 38.552 0 14.624 6.647 27.918 19.276 40.547 13.294 12.629 31.241 18.611 53.84 18.611 17.947 0 31.906-3.988 41.876-12.629 9.971-8.641 14.624-19.276 14.624-33.235 0-13.958-5.983-27.252-18.612-39.882-12.629-12.629-30.576-18.611-53.84-18.611-13.294.665-23.929 2.659-33.235 6.647Zm137.592-30.576c3.324-3.324 7.312-4.653 11.965-4.653s8.641 1.33 11.964 4.653c3.324 3.323 4.653 7.311 4.653 11.964 0 4.653-1.329 8.641-4.653 11.965-3.323 3.323-7.311 4.653-11.964 4.653-4.653 0-8.641-1.33-11.965-4.653-3.323-3.324-4.653-7.312-4.653-11.965s1.33-8.64 4.653-11.964Zm1.329 22.6c2.659 2.658 6.647 4.652 10.636 4.652 3.988 0 7.976-1.33 10.635-4.653 2.659-2.658 4.653-6.647 4.653-10.635 0-3.988-1.33-7.976-4.653-10.635-2.659-2.659-6.647-4.653-10.635-4.653-3.989 0-7.977 1.33-10.636 4.653-2.658 2.659-4.652 6.647-4.652 10.635 0 3.989 1.994 7.312 4.652 10.635Zm1.33-1.995h2.659c.664 0 .664-.664.664-1.329V42.541c0-.665 0-1.33-.664-1.33h-2.659v-1.33h9.306c2.658 0 4.652.666 5.982 1.33 1.329.665 1.994 1.994 1.994 3.988 0 1.33-.665 2.66-1.994 3.324-1.33.665-2.659 1.33-4.653 1.33 2.659.664 3.988 2.658 4.653 4.652.665 2.659 1.329 3.988 1.994 3.988s1.329 0 1.329-.664c0-.665 0-1.33.665-2.66h1.329c0 1.33-.664 2.66-.664 3.324-.665 1.33-1.994 1.994-3.324 1.994-1.329 0-2.659-.664-3.323-1.329-.665-.665-.665-1.994-.665-3.988s-.665-3.324-1.329-3.988c-.665-.665-1.994-.665-4.653-.665v6.647c0 .665 0 1.33.665 1.33h2.658v1.329h-9.97v-1.33Zm11.964-9.97c1.33-.665 1.994-1.994 1.994-3.988 0-1.33-.664-1.994-1.329-2.66-.665-.664-1.994-1.328-3.323-1.328-.665 0-1.33 0-1.994.664-.665 0-.665.665-.665 1.33v6.647c2.659-.665 3.988-.665 5.317-.665ZM392.836 323.708h46.529l1.329 19.941h-3.323c-.665-3.989-1.994-7.977-2.659-9.971-1.329-2.659-2.659-3.988-3.988-5.317-1.33-1.33-3.324-1.33-5.318-1.33-1.329 0-1.994 0-2.659.665-.664.665-.664 1.329-.664 1.994v40.546c0 .665 0 1.33.664 1.995.665.664 1.33.664 1.994.664h5.983v3.324h-28.582v-3.324h5.982c.665 0 1.329 0 1.994-.664.665-.665.665-1.33.665-1.995V329.69c0-.665 0-1.329-.665-1.994s-1.329-.665-2.659-.665c-5.982 0-9.97 5.318-12.629 16.618h-3.323l1.329-19.941Zm87.075 35.893h-23.264c0 4.653 1.329 7.977 2.659 10.635 1.994 1.995 3.988 3.324 7.311 3.324 1.994 0 3.988-.665 5.983-1.994 1.994-1.33 3.988-3.324 5.317-5.982l2.659 1.329c-1.994 3.323-4.653 5.982-6.647 7.976-2.659 1.33-5.982 1.994-9.306 1.994-5.317 0-9.97-1.994-13.294-5.317-3.323-3.324-5.317-7.312-5.317-12.629 0-5.318 1.994-9.306 5.317-13.294 3.324-3.324 7.312-5.318 12.63-5.318 3.323 0 6.646.665 8.641 1.994 2.658 1.33 4.652 3.324 5.982 5.982.665 3.989 1.329 7.312 1.329 11.3Zm-23.264-2.658h11.3c1.329 0 1.994 0 1.994-.665.664-.665.665-1.33.665-2.659 0-2.659-.665-4.653-1.995-6.647-1.329-1.329-2.658-1.994-4.652-1.994-1.995 0-3.989 1.329-5.318 3.323-1.329 1.33-1.994 3.989-1.994 8.642Zm63.811 7.311 2.659 1.33c-1.33 3.988-3.989 6.647-6.647 8.641-3.324 1.994-6.647 3.323-10.635 3.323-5.983 0-9.971-1.329-13.294-4.653-3.324-3.323-4.653-7.311-4.653-12.629 0-5.317 1.994-9.97 5.317-13.958 3.988-3.324 8.641-5.318 14.624-5.318 4.653 0 7.976.665 9.97 2.659 2.659 1.994 3.324 3.988 3.324 6.647 0 1.994-.665 3.323-1.33 4.653-1.329 1.329-2.659 1.329-3.988 1.329-1.329 0-2.659-.665-3.323-1.329-.665-.665-1.33-1.994-1.33-3.324 0-1.329.665-2.659 1.33-3.988.664-.665.664-1.329.664-1.329 0-.665-.664-.665-1.329-1.33-1.33-.665-2.659-.665-3.988-.665-3.324 0-5.318 1.33-6.647 3.324-1.994 2.659-2.659 6.647-2.659 11.965 0 5.317.665 9.305 2.659 11.299 1.994 1.994 3.988 3.324 7.311 3.324 2.659 0 4.653-.665 6.647-2.659 1.994-1.994 3.989-3.988 5.318-7.312Zm7.311-40.546 15.953-.665v25.923c2.659-2.659 4.653-4.653 6.647-5.982 1.994-1.329 3.988-1.329 6.647-1.329 3.324 0 5.982 1.329 7.977 3.323 1.994 2.659 3.323 5.318 3.323 9.971v15.288c0 1.329 0 1.994.665 2.658.664.665 1.329.665 1.994.665h1.994v3.324h-19.941v-3.324h1.994c1.329 0 1.994 0 2.659-.665.665-.664.665-1.329.665-2.658v-15.288c0-1.995-.665-3.989-1.995-5.318-1.329-1.329-2.658-1.994-4.652-1.994-1.995 0-3.989.665-5.983 2.659-1.329 1.994-2.659 4.653-2.659 7.976v11.965c0 1.329.001 1.994.665 2.658.665.665 1.33.665 1.994.665h2.659v3.324h-20.606v-3.324h2.659c1.33 0 1.994 0 2.659-.665.665-.664.665-1.329.665-2.658v-39.882c0-1.33-.665-1.994-1.33-2.659-.664-.665-1.994-.665-2.658-.665h-2.659v-3.323h.664Zm95.717 49.187v3.324h-19.941v-3.324h1.994c1.329 0 1.994 0 2.659-.664.665-.665.665-1.33.665-2.659v-14.624c0-2.658-.665-4.652-1.994-5.982-1.33-1.329-2.659-1.994-4.653-1.994-2.659 0-4.653.665-5.983 2.659-1.329 1.994-2.658 4.653-2.658 7.976v11.3c0 1.329 0 1.994.664 2.659.665.665 1.33.665 1.994.665h2.659v3.323h-20.605v-3.323h2.658c1.33 0 1.994 0 2.659-.665.665-.665.665-1.33.665-2.659v-19.941c0-1.329-.665-1.994-1.33-2.659-.664-.664-1.994-1.329-3.323-1.329h-1.329v-3.324l13.958-.664c.665 1.994.665 4.653 1.33 7.311 1.994-2.658 3.988-4.652 5.982-5.982 1.994-1.329 4.653-1.994 7.312-1.994 3.323 0 5.982 1.329 7.976 3.324 1.994 1.994 2.659 5.317 2.659 9.305v15.288c0 1.33 0 1.994.664 2.659.665.665 1.33.665 2.659.665h2.659v1.329Zm23.929-31.905c3.988 0 7.312.665 10.635 2.659 3.324 1.329 5.318 3.988 7.312 6.647 1.329 2.659 1.994 5.982 1.994 9.306 0 5.982-1.994 10.635-5.982 13.293-3.989 3.324-8.641 4.653-13.294 4.653-3.324 0-6.647-.664-9.971-2.658-2.659-1.33-5.317-3.989-6.647-6.647-1.329-2.659-2.659-5.983-2.659-9.306 0-5.318 1.995-9.306 5.318-13.294a21.408 21.408 0 0 1 13.294-4.653Zm0 3.323c-2.659 0-4.653 1.33-5.982 3.324-1.33 1.994-1.994 5.982-1.994 11.3 0 5.982.664 9.97 1.994 11.964 1.329 1.994 3.323 3.324 5.982 3.324 2.659 0 4.653-1.33 5.982-3.324 1.33-1.994 1.994-5.982 1.994-11.299 0-5.318-.664-9.306-1.994-11.965-1.329-1.994-3.323-3.324-5.982-3.324Zm25.259-20.605 15.952-.665v47.194c0 .664 0 1.329.665 1.994.665.664 1.329.664 2.659.664h1.994v3.324h-19.941v-3.324h1.994c1.329 0 1.994 0 2.659-.664.665-.665.664-1.33.664-2.659v-39.217c0-1.33.001-1.994-1.329-2.659-.665-.665-1.329-.665-2.659-.665h-2.658v-3.323Zm45.199 17.282c3.988 0 7.312.665 10.635 2.659 3.324 1.329 5.318 3.988 7.312 6.647 1.329 2.659 1.994 5.982 1.994 9.306 0 5.982-1.994 10.635-5.982 13.293-3.989 3.324-8.642 4.653-13.294 4.653-3.324 0-6.647-.664-9.971-2.658-2.659-1.33-5.317-3.989-6.647-6.647-1.329-2.659-2.659-5.983-2.659-9.306 0-5.318 1.994-9.306 5.318-13.294a21.406 21.406 0 0 1 13.294-4.653Zm0 3.323c-2.659 0-4.653 1.33-5.982 3.324-1.33 1.994-1.994 5.982-1.994 11.3 0 5.982.664 9.97 1.994 11.964 1.329 1.994 3.323 3.324 5.982 3.324 2.659 0 4.653-1.33 5.982-3.324 1.33-1.994 1.994-5.982 1.994-11.299 0-5.318-.664-9.306-1.994-11.965-1.329-1.994-3.323-3.324-5.982-3.324Zm53.84-1.329c2.659-3.323 5.983-5.317 8.642-5.317 1.329 0 2.658.664 3.323 1.329.665.665 1.329 1.994 1.329 3.323 0 1.33 0 1.994-.664 2.659-.665.665-1.33 1.33-2.659 1.33-1.33 0-2.659-.665-3.324-1.995-.664-.664-.664-1.329-1.329-1.329-.665 0-1.329.665-2.659 1.994 2.659 2.659 3.988 5.318 3.988 7.977 0 1.994-.664 3.988-1.994 5.982-1.329 1.994-3.323 3.323-5.317 3.988-2.659 1.329-5.318 1.329-9.306 1.329h-3.988c-2.659 0-4.653 0-5.982.665-1.33.665-1.33 1.329-1.33 1.994s0 1.33.665 1.994c.665.665 1.994.665 3.988.665h11.3c5.317 0 9.306.665 11.3 2.659 1.994 1.329 3.323 3.988 3.323 6.647 0 3.323-1.329 5.982-3.988 7.976-3.323 2.659-8.641 3.988-15.953 3.988-6.647 0-11.3-.664-13.958-1.994-2.659-1.329-3.989-3.323-3.989-5.317 0-1.33.665-2.659 1.995-3.324 1.329-.665 3.323-1.994 7.311-2.659-2.659-.664-3.988-1.329-5.317-2.658-1.33-1.33-1.994-2.659-1.994-4.653 0-1.33.664-3.324 1.329-3.988.665-1.33 2.659-1.995 4.653-3.324-1.994-1.329-3.988-2.659-4.653-3.988-1.329-1.33-1.994-3.324-1.994-5.318 0-1.994.665-3.988 1.994-5.982 1.329-1.994 3.323-3.324 5.318-4.653 2.658-1.329 5.317-1.329 9.305-1.329 1.994 0 3.324 0 5.318.664 1.994-.664 3.988 0 5.317.665Zm3.989 39.217c0-1.329-.665-2.659-2.659-3.323-1.33-.665-3.324-.665-7.312-.665-6.647 0-10.635.665-12.629 1.329-1.994.665-2.659 1.995-2.659 3.324 0 1.329.665 2.659 1.994 3.323 1.33.665 4.653 1.33 8.641 1.33 5.318 0 9.306-.665 11.965-1.994 1.994-.665 2.659-1.994 2.659-3.324Zm-13.959-37.888c-1.329 0-3.324.665-3.988 1.995-1.33 1.329-1.994 3.988-1.994 6.647 0 2.658.664 4.652 1.994 6.647 1.329 1.329 2.659 1.994 3.988 1.994 1.994 0 3.323-.665 3.988-1.994 1.33-1.33 1.994-3.989 1.994-6.647 0-2.659-.664-4.653-1.994-6.647-.665-1.33-1.994-1.995-3.988-1.995Zm25.923-1.329h19.941v3.323h-1.994c-1.329 0-1.994 0-2.659.665-.665.665-.665.665-.665 1.33 0 .664 0 1.329.665 1.994l8.641 15.952 7.312-14.623c.665-.665.665-1.329.665-1.994s-.665-1.994-1.33-1.994c-.664-.665-1.994-.665-3.323-.665h-1.33v-3.323h14.624v3.323c-1.33 0-2.659.665-3.324.665-.665.665-1.329 1.329-1.994 2.659l-13.294 27.917c-1.994 4.653-4.653 7.976-7.312 10.635-1.994 1.329-3.988 2.659-6.647 2.659-2.658 0-4.652-.665-5.982-1.994-1.329-1.33-1.994-2.659-1.994-4.653 0-1.329.665-2.659 1.33-3.324.664-.664 1.994-1.329 3.323-1.329s2.659.665 3.323 1.329c.665.665 1.33 1.995 1.33 3.324v1.994c0 .665 0 .665.665.665 1.329 0 2.658-.665 3.988-2.659 1.329-1.994 3.323-4.653 5.317-8.641l-13.958-27.253c-.665-1.329-1.33-1.994-1.33-1.994-.664-.665-1.329-.665-1.994-.665h-1.994v-3.323Z"/>
  <path fill="url(#a)" d="M894.018 202.733c-95.052 69.793-122.305 100.369-187.445 101.698-96.381 1.33-126.292-103.028-224.668-103.028-107.016 0-120.31 106.352-265.214 103.028h-15.288l-9.97 3.324h24.594c147.562 3.323 160.856-103.693 266.543-103.693 97.046 0 128.287 103.693 224.668 103.028 66.469-.665 93.722-31.905 192.762-104.357h-5.982Z"/>
  <path fill="url(#b)" d="M853.471 202.733c-95.051 69.793-122.304 100.369-187.444 101.698-96.381 1.33-126.293-103.028-224.668-103.028-107.016 0-120.31 106.352-265.214 103.028h-15.288l-9.971 3.324h25.259c146.898 3.323 160.192-103.693 265.879-103.693 97.046 0 128.286 103.693 224.667 103.028 66.47-.665 93.723-31.905 192.763-104.357h-5.983Z"/>
  <path fill="url(#c)" d="M813.589 202.733c-95.051 69.793-122.304 100.369-187.444 101.698-96.381 1.33-126.293-103.028-224.668-103.028-107.016 0-120.31 106.352-265.214 103.028h-15.288l-9.971 3.324h25.259c146.898 3.323 159.527-103.693 265.214-103.693 97.046 0 128.287 103.693 224.668 103.028 66.47-.665 93.722-31.905 192.762-104.357h-5.318Z"/>
  <path fill="url(#d)" d="M773.043 202.733c-95.052 69.793-122.304 100.369-187.445 101.698-96.381 1.33-126.292-103.028-224.667-103.028-107.017 0-120.311 106.352-265.215 103.028H80.428l-9.97 3.324h24.594c147.563 3.323 160.192-103.693 265.879-103.693 97.045 0 128.286 103.693 224.667 103.028 66.47-.665 93.723-31.905 192.762-104.357h-5.317Z"/>
  <path fill="url(#e)" d="M732.496 202.733c-95.051 69.793-122.304 100.369-187.444 101.698-96.381 1.33-126.293-103.028-224.668-103.028-107.016 0-120.31 106.352-265.214 103.028H39.882l-9.97 3.324h24.593c147.563 3.323 160.192-103.693 265.879-103.693 97.046 0 128.287 103.693 224.668 103.028 66.469-.665 93.722-31.905 192.762-104.357h-5.318Z"/>
  <path fill="url(#f)" d="M691.95 202.733c-95.052 69.793-121.64 100.369-187.445 101.698-96.381 1.33-126.292-103.028-224.667-103.028-107.017 0-120.311 106.352-265.215 103.028H0v3.324h15.288c146.233 3.323 158.863-103.693 265.214-103.693 97.046 0 128.287 103.693 224.668 103.028 66.47-.665 93.722-31.905 192.762-104.357h-5.982Z"/>
  <defs>
    <linearGradient id="a" x1="184.347" x2="900" y1="201.403" y2="201.403" gradientUnits="userSpaceOnUse">
      <stop stop-color="#D4E9F8"/>
      <stop offset="1" stop-color="#1D5375"/>
    </linearGradient>
    <linearGradient id="b" x1="143.801" x2="859.454" y1="201.403" y2="201.403" gradientUnits="userSpaceOnUse">
      <stop stop-color="#D4E9F8"/>
      <stop offset="1" stop-color="#1D5375"/>
    </linearGradient>
    <linearGradient id="c" x1="103.925" x2="818.907" y1="201.403" y2="201.403" gradientUnits="userSpaceOnUse">
      <stop stop-color="#D4E9F8"/>
      <stop offset="1" stop-color="#1D5375"/>
    </linearGradient>
    <linearGradient id="d" x1="63.379" x2="778.36" y1="201.403" y2="201.403" gradientUnits="userSpaceOnUse">
      <stop stop-color="#D4E9F8"/>
      <stop offset="1" stop-color="#1D5375"/>
    </linearGradient>
    <linearGradient id="e" x1="22.832" x2="737.814" y1="201.403" y2="201.403" gradientUnits="userSpaceOnUse">
      <stop stop-color="#D4E9F8"/>
      <stop offset="1" stop-color="#1D5375"/>
    </linearGradient>
    <linearGradient id="f" x1="-6.979" x2="697.932" y1="201.403" y2="201.403" gradientUnits="userSpaceOnUse">
      <stop stop-color="#D4E9F8"/>
      <stop offset="1" stop-color="#1D5375"/>
    </linearGradient>
  </defs>
</svg>
